<?xml version="1.0" encoding="UTF-8"?>
<svg width="14px" height="9px" viewBox="0 0 14 9" version="1.1" xmlns="http://www.w3.org/2000/svg" xmlns:xlink="http://www.w3.org/1999/xlink">
    <!-- Generator: Sketch 47.1 (45422) - http://www.bohemiancoding.com/sketch -->
    <title>into_icon</title>
    <desc>Created with Sketch.</desc>
    <defs></defs>
    <g id="Page-1" stroke="none" stroke-width="1" fill="none" fill-rule="evenodd">
        <g id="Artboard" transform="translate(-258.000000, -417.000000)" fill-rule="nonzero" fill="#292929">
            <path d="M258.192704,421.943895 L269.705946,421.943895 L266.765962,424.774155 C266.690704,424.849429 266.690704,424.971442 266.765962,425.046732 L267.35652,425.63729 C267.431794,425.712548 267.553807,425.712548 267.629096,425.63729 L271.330103,422.074337 C271.334372,422.070743 271.338594,422.067039 271.342612,422.063021 L271.362372,422.043261 L271.933155,421.493792 C271.973444,421.453487 271.991948,421.399779 271.989092,421.347012 C271.992043,421.294135 271.973538,421.240285 271.933186,421.199918 L271.342628,420.630705 C271.338814,420.626922 271.334843,420.623438 271.330825,420.620032 L267.629112,417.056467 C267.553839,416.981178 267.431825,416.981178 267.356536,417.056467 L266.765978,417.647025 C266.69072,417.722283 266.69072,417.844297 266.765978,417.919601 L269.678386,420.723321 L258.192735,420.723321 C258.086276,420.723321 258,420.809613 258,420.916057 L258,421.751238 C258,421.857666 258.086276,421.943974 258.192735,421.943974 L258.192704,421.943895 Z" id="into_icon"></path>
        </g>
    </g>
</svg>