<?xml version="1.0" encoding="UTF-8"?>
<svg width="22px" height="36px" viewBox="0 0 22 36" version="1.1" xmlns="http://www.w3.org/2000/svg" xmlns:xlink="http://www.w3.org/1999/xlink">
    <!-- Generator: Sketch 47.1 (45422) - http://www.bohemiancoding.com/sketch -->
    <title>Recommend2_icon</title>
    <desc>Created with Sketch.</desc>
    <defs></defs>
    <g id="Page-1" stroke="none" stroke-width="1" fill="none" fill-rule="evenodd">
        <g id="Artboard" transform="translate(-336.000000, -291.000000)">
            <g id="Recommend2_icon" transform="translate(336.000000, 291.000000)">
                <path d="M0.0040018273,0 L0.0040018273,33.3100299 C-0.0472781623,33.9891494 0.397554959,34.6317563 1.14960843,34.9649757 C1.90166191,35.2981951 2.82892803,35.2635371 3.53765497,34.8757188 L9.70169596,31.830454 C10.4860417,31.3993693 11.5278861,31.3993693 12.3122318,31.830454 L18.5656068,34.8757188 C20.1934694,35.7211907 21.960296,34.8130912 21.960296,33.3100299 L22,0 L0.0040018273,0 Z" id="Shape" fill="#FFFFFF" fill-rule="nonzero"></path>
                <path d="M11.664,9.388 L11.664,11.008 L13.8,11.008 L13.8,9.388 L11.664,9.388 Z M11.664,11.812 L11.664,13.6 L13.8,13.6 L13.8,11.812 L11.664,11.812 Z M11.664,14.428 L11.664,14.98 L10.812,14.98 L10.812,7.948 C10.524,8.404 10.2,8.836 9.864,9.244 L9.576,8.332 C10.56,7.036 11.244,5.608 11.652,4.048 L12.492,4.216 C12.312,4.864 12.084,5.488 11.82,6.1 L13.992,6.1 C13.8,5.464 13.56,4.84 13.284,4.24 L14.112,4.012 C14.4,4.732 14.616,5.38 14.772,5.98 L14.448,6.1 L16.74,6.1 L16.74,6.94 L14.652,6.94 L14.652,8.572 L16.5,8.572 L16.5,9.388 L14.652,9.388 L14.652,11.008 L16.5,11.008 L16.5,11.812 L14.652,11.812 L14.652,13.6 L16.872,13.6 L16.872,14.428 L11.664,14.428 Z M13.8,6.94 L11.664,6.94 L11.664,8.572 L13.8,8.572 L13.8,6.94 Z M9.708,8.968 L9.708,9.844 C9.348,10.024 8.976,10.192 8.592,10.348 L8.592,13.816 C8.592,14.488 8.232,14.836 7.524,14.836 L6.42,14.836 L6.24,13.996 C6.576,14.032 6.912,14.056 7.224,14.056 C7.548,14.056 7.716,13.9 7.716,13.588 L7.716,10.696 C7.224,10.864 6.72,11.032 6.216,11.176 L6,10.312 C6.588,10.18 7.164,10.012 7.716,9.82 L7.716,7.06 L6.18,7.06 L6.18,6.22 L7.716,6.22 L7.716,4 L8.592,4 L8.592,6.22 L9.804,6.22 L9.804,7.06 L8.592,7.06 L8.592,9.484 C8.976,9.316 9.348,9.148 9.708,8.968 Z M6.324,16.9 L9.048,16.9 L9.048,16.036 L9.936,16.036 L9.936,16.9 L13.104,16.9 L13.104,16.036 L13.992,16.036 L13.992,16.9 L16.716,16.9 L16.716,17.692 L13.992,17.692 L13.992,18.568 L13.104,18.568 L13.104,17.692 L9.936,17.692 L9.936,18.556 L9.048,18.556 L9.048,17.692 L6.324,17.692 L6.324,16.9 Z M6.48,19.372 L9.864,19.372 C10.008,19.06 10.14,18.76 10.26,18.46 L11.1,18.604 C11.004,18.868 10.896,19.12 10.8,19.372 L16.656,19.372 L16.656,20.164 L10.404,20.164 C10.044,20.8 9.612,21.4 9.12,21.964 L9.12,27.052 L8.292,27.052 L8.292,22.804 C7.788,23.26 7.236,23.68 6.636,24.088 L6.096,23.392 C7.524,22.456 8.628,21.376 9.408,20.164 L6.48,20.164 L6.48,19.372 Z M13.272,22.852 C13.704,22.588 14.196,22.264 14.772,21.88 L10.824,21.88 L10.824,21.088 L15.996,21.088 L15.996,21.712 C15.444,22.144 14.82,22.612 14.136,23.092 L14.136,23.596 L16.776,23.596 L16.776,24.412 L14.136,24.412 L14.136,26.032 C14.136,26.68 13.812,27.004 13.176,27.004 L11.772,27.004 L11.52,26.164 C12.072,26.2 12.516,26.224 12.828,26.224 C13.116,26.224 13.272,26.08 13.272,25.792 L13.272,24.412 L9.96,24.412 L9.96,23.596 L13.272,23.596 L13.272,22.852 Z" id="推-荐" fill="#303643"></path>
            </g>
        </g>
    </g>
</svg>